Title                            : Sucker Punch
Year                             : 2011
Genre                            : Action | Adventure | Fantasy
iMDB URL                         : http://www.imdb.com/title/tt0978764/

Complete name                    : Sucker.Punch.2011.BRRIP.720P.H264-ZEKTORM.mp4
Format                           : MPEG-4
Format profile                   : Base Media
Codec ID                         : isom
File size                        : 2.44 GiB
Duration                         : 1h 49mn
Overall bit rate                 : 3186 Kbps
Subtitles                        : English (Format: srt)

Video
ID                               : 1
Format                           : AVC
Format/Info                      : Advanced Video Codec
Format profile                   : High@L4.0
Format settings, CABAC           : Yes
Format settings, ReFrames        : 12 frames
Codec ID                         : avc1
Codec ID/Info                    : Advanced Video Coding
Duration                         : 1h 49mn
Bit rate mode                    : Variable
Bit rate                         : 2739 Kbps
Width                            : 1280 pixels
Height                           : 528 pixels
Display aspect ratio             : 2.424
Frame rate mode                  : Constant
Frame rate                       : 23.976 fps
Resolution                       : 24 bits
Colorimetry                      : 4:2:0
Scan type                        : Progressive
Bits/(Pixel*Frame)               : 0.169
Stream size                      : 2.10 GiB (86%)
Title                            : Video
Writing library                  : x264

Audio
ID                               : 2
Format                           : AAC
Format/Info                      : Advanced Audio Codec
Format version                   : Version 4
Format profile                   : LC
Format settings, SBR             : No
Codec ID                         : 40
Duration                         : 1h 49mn
Bit rate mode                    : Variable
Bit rate                         : 444 Kbps
Maximum bit rate                 : 548 Kbps
Channel(s)                       : 6 channels
Channel positions                : Front: L C R, Rear: L R, LFE
Sampling rate                    : 48.0 KHz
Resolution                       : 16 bits
Stream size                      : 348 MiB (14%)
Language                         : English


Screenshots:

[img]http://img821.imageshack.us/img821/673/snapsp1.png[/img]

[img]http://img830.imageshack.us/img830/6373/snapsp2.png[/img]

[img]http://img155.imageshack.us/img155/6691/snapsp3.png[/img]

[img]http://img855.imageshack.us/img855/7614/snapsp4.png[/img]
